<svg id="Layer_1" data-name="Layer 1" xmlns="http://www.w3.org/2000/svg" viewBox="0 0 83.64 20.97"><defs><style>.cls-1{fill:#3b89c9;}.cls-2{fill:#aaa;}</style></defs><title>smartex assets</title><path id="_Compound_Path_" data-name="&lt;Compound Path&gt;" class="cls-1" d="M80.7,12A1.78,1.78,0,0,1,78.87,10a1.83,1.83,0,1,1,3.65,0A1.78,1.78,0,0,1,80.7,12Zm-54-6.79a3.75,3.75,0,0,0-2.54-.87C22.49,4.31,21,5.24,21,7c0,2.77,3.89,1.94,3.89,3.47,0,.59-.67.87-1.27.87A2,2,0,0,1,22,10.55L20.69,12a3.94,3.94,0,0,0,2.79,1c1.71,0,3.2-.88,3.2-2.73,0-2.9-3.82-1.93-3.82-3.44,0-.62.71-.86,1.23-.86a1.76,1.76,0,0,1,1.32.55l1.25-1.37Zm.91,7.64h1.76V10c0-.74.14-1.45,1.05-1.45s.79.86.79,1.28v3h1.76v-3c0-.7.26-1.28,1.07-1.28.57,0,.77.44.77,1v3.31h1.76V9.45c0-1.38-.47-2.47-2-2.47a1.85,1.85,0,0,0-1.8,1,1.78,1.78,0,0,0-1.76-1,1.85,1.85,0,0,0-1.66.91h0V7.12H27.57Zm13.53,0h1.62V9.92C42.72,8,42.17,7,40.12,7a3.68,3.68,0,0,0-2.51.91l.94,1A1.88,1.88,0,0,1,40,8.18a1,1,0,0,1,1.13,1c-1.47,0-3.85,0-3.85,2a1.83,1.83,0,0,0,2,1.76,2.06,2.06,0,0,0,1.8-.86h0v.71Zm0-2.5v.37c0,.7-.64,1.07-1.34,1.07-.39,0-.83-.2-.83-.62,0-.77,1.2-.82,1.73-.82h.43Zm2.48,2.5h1.76V10.44c0-1.14.33-1.91,1.75-1.91h1.19v2.71c0,1.24.9,1.73,2.07,1.73a3.59,3.59,0,0,0,1.23-.18V11.32a1.27,1.27,0,0,1-.71.16c-.76,0-.83-.44-.83-1.05V8.53h1.55V7H50V5.44H48.28V7h-.94a2,2,0,0,0-2,1.05h0V7.12H43.59v5.69Zm12.88-1.89a1.49,1.49,0,0,1-1.25.69,1.31,1.31,0,0,1-1.32-1.1H58V10c0-1.82-1-3-2.67-3a3,3,0,1,0,0,6,3.1,3.1,0,0,0,2.4-1.13l-1.23-.9Zm-2.58-1.6a1.17,1.17,0,0,1,1.24-1.08,1.05,1.05,0,0,1,1.08,1.08H53.89ZM58,12.82h2.05l1.34-1.9,1.24,1.9h2.07l-2.19-3,1.85-2.65h-2l-1,1.55-1-1.55H58.37l1.9,2.65-2.25,3Zm7.79,0h4.93V11.76H66.93V4.52H65.8v8.29ZM72.46,8.6A2.31,2.31,0,0,1,74,8a1.19,1.19,0,0,1,1.32,1.17v.23h-.77c-1.69,0-3.06.49-3.06,1.92A1.73,1.73,0,0,0,73.46,13a2.12,2.12,0,0,0,1.94-1h0c0,.28,0,.56,0,.84h.94a8.6,8.6,0,0,1,0-1V9c0-1-.68-1.85-2.32-1.85a3.26,3.26,0,0,0-2.2.82Zm2.9,1.55v.35a1.5,1.5,0,0,1-1.58,1.62c-.73,0-1.2-.27-1.2-.9,0-.89,1.22-1.07,2.21-1.07h.56Zm2.45,2.67h1.05V12h0a2.37,2.37,0,0,0,1.93.94A2.76,2.76,0,0,0,83.64,10a2.75,2.75,0,0,0-2.82-2.92,2.33,2.33,0,0,0-1.93.94h0V4H77.81v8.78Z"/><path id="_Path_" data-name="&lt;Path&gt;" class="cls-1" d="M4.23,11.54H5a.4.4,0,0,0,.39-.25l2-4.6v-5h2.89v5l2,4.6a.4.4,0,0,0,.39.25h.76c.39,0,.55-.35.39-.71l-2-4.55V1.71h0A.69.69,0,0,0,12.53,1V.69A.69.69,0,0,0,11.84,0H5.78a.69.69,0,0,0-.69.69V1a.69.69,0,0,0,.69.69h0V6.28l-2,4.55c-.15.36,0,.71.39.71Z"/><path id="_Compound_Path_2" data-name="&lt;Compound Path&gt;" class="cls-1" d="M8.79,20.48a.58.58,0,1,1,.58-.58A.58.58,0,0,1,8.79,20.48Zm8.55-1.75-2-4.29A2.48,2.48,0,0,0,13,12.82H4.66a2.4,2.4,0,0,0-2.42,1.63l-2,4.29C-.11,19.54-.38,21,1.54,21H16.07C17.95,21,17.71,19.55,17.34,18.73ZM14,18.94H3.58c-1.39,0-1.14-.9-.92-1.42l1.2-2.75a1.48,1.48,0,0,1,1.55-1h6.75a1.52,1.52,0,0,1,1.55,1l1.2,2.75C15.14,18,15.35,18.94,14,18.94Z"/><g id="_Group_" data-name="&lt;Group&gt;"><path id="_Path_2" data-name="&lt;Path&gt;" class="cls-2" d="M25.4,18.18a.65.65,0,0,1-.24.53,1.06,1.06,0,0,1-.68.2,1.6,1.6,0,0,1-.71-.15v-.49a2.92,2.92,0,0,0,.43.16,1.27,1.27,0,0,0,.32,0,.46.46,0,0,0,.27-.07.23.23,0,0,0,.09-.2.22.22,0,0,0,0-.13.46.46,0,0,0-.12-.11l-.32-.17a1.56,1.56,0,0,1-.34-.21.78.78,0,0,1-.18-.23.66.66,0,0,1-.07-.31.65.65,0,0,1,.23-.52.94.94,0,0,1,.62-.19,1.47,1.47,0,0,1,.37,0,2.56,2.56,0,0,1,.37.13l-.17.41-.33-.11a1.07,1.07,0,0,0-.26,0,.34.34,0,0,0-.23.07.23.23,0,0,0-.08.18.23.23,0,0,0,0,.12.36.36,0,0,0,.1.1l.34.18a1.34,1.34,0,0,1,.48.34A.66.66,0,0,1,25.4,18.18Z"/><path id="_Path_3" data-name="&lt;Path&gt;" class="cls-2" d="M27.18,18.88l-.6-2h0q0,.6,0,.8v1.17h-.47V16.37h.72l.59,1.92h0l.63-1.92h.72v2.51h-.5V17.69q0-.08,0-.19t0-.58h0l-.65,2Z"/><path id="_Compound_Path_3" data-name="&lt;Compound Path&gt;" class="cls-2" d="M30.91,17.84l-.28-.92,0-.17q-.06.22-.32,1.08Zm.31,1-.18-.6h-.91l-.18.6h-.57l.88-2.52h.65l.89,2.52Z"/><path id="_Compound_Path_4" data-name="&lt;Compound Path&gt;" class="cls-2" d="M32.9,17.49h.17a.66.66,0,0,0,.37-.08.3.3,0,0,0,.12-.26.27.27,0,0,0-.12-.25.74.74,0,0,0-.38-.08H32.9Zm0,.43v1h-.53V16.37h.73a1.25,1.25,0,0,1,.76.19.74.74,0,0,1,.12,1,.8.8,0,0,1-.34.27l.74,1.09h-.59l-.6-1Z"/><polygon id="_Path_4" data-name="&lt;Path&gt;" class="cls-2" points="35.92 18.88 35.39 18.88 35.39 16.82 34.71 16.82 34.71 16.37 36.6 16.37 36.6 16.82 35.92 16.82 35.92 18.88"/></g><g id="_Group_2" data-name="&lt;Group&gt;"><path id="_Path_5" data-name="&lt;Path&gt;" class="cls-2" d="M40.12,16.78a.54.54,0,0,0-.46.23,1,1,0,0,0-.16.63q0,.84.63.84a2,2,0,0,0,.64-.13v.45a1.78,1.78,0,0,1-.69.13,1.05,1.05,0,0,1-.84-.33,1.4,1.4,0,0,1-.29-1,1.55,1.55,0,0,1,.14-.68,1,1,0,0,1,.41-.45,1.21,1.21,0,0,1,.62-.16,1.69,1.69,0,0,1,.73.18l-.17.43-.28-.12A.84.84,0,0,0,40.12,16.78Z"/><path id="_Compound_Path_5" data-name="&lt;Compound Path&gt;" class="cls-2" d="M42.09,17.49h.17a.66.66,0,0,0,.37-.08.3.3,0,0,0,.12-.26.27.27,0,0,0-.12-.25.74.74,0,0,0-.38-.08h-.16Zm0,.43v1h-.53V16.37h.73a1.25,1.25,0,0,1,.76.19.74.74,0,0,1,.12,1,.8.8,0,0,1-.34.27l.74,1.09H43l-.6-1Z"/><polygon id="_Path_6" data-name="&lt;Path&gt;" class="cls-2" points="45.58 18.88 44.14 18.88 44.14 16.37 45.58 16.37 45.58 16.81 44.67 16.81 44.67 17.36 45.52 17.36 45.52 17.79 44.67 17.79 44.67 18.44 45.58 18.44 45.58 18.88"/><path id="_Compound_Path_6" data-name="&lt;Compound Path&gt;" class="cls-2" d="M47.59,17.84l-.28-.92,0-.17q-.06.22-.32,1.08Zm.31,1-.18-.6h-.91l-.18.6h-.57l.88-2.52h.65l.89,2.52Z"/><polygon id="_Path_7" data-name="&lt;Path&gt;" class="cls-2" points="50.02 18.88 49.49 18.88 49.49 16.82 48.81 16.82 48.81 16.37 50.7 16.37 50.7 16.82 50.02 16.82 50.02 18.88"/><rect id="_Path_8" data-name="&lt;Path&gt;" class="cls-2" x="51.35" y="16.37" width="0.53" height="2.51"/><path id="_Path_9" data-name="&lt;Path&gt;" class="cls-2" d="M54.2,16.37h.54l-.85,2.51h-.58l-.85-2.51H53l.47,1.49q0,.13.08.31t.05.24a4.41,4.41,0,0,1,.13-.55Z"/><polygon id="_Path_10" data-name="&lt;Path&gt;" class="cls-2" points="56.76 18.88 55.32 18.88 55.32 16.37 56.76 16.37 56.76 16.81 55.85 16.81 55.85 17.36 56.7 17.36 56.7 17.79 55.85 17.79 55.85 18.44 56.76 18.44 56.76 18.88"/></g><g id="_Group_3" data-name="&lt;Group&gt;"><path id="_Compound_Path_7" data-name="&lt;Compound Path&gt;" class="cls-2" d="M60.89,17.62q0-.81-.71-.81h-.28v1.63h.23Q60.89,18.44,60.89,17.62Zm.55,0a1.23,1.23,0,0,1-.35.95,1.44,1.44,0,0,1-1,.33h-.71V16.37h.79a1.32,1.32,0,0,1,1,.32A1.19,1.19,0,0,1,61.44,17.6Z"/><polygon id="_Path_11" data-name="&lt;Path&gt;" class="cls-2" points="63.66 18.88 62.22 18.88 62.22 16.37 63.66 16.37 63.66 16.81 62.75 16.81 62.75 17.36 63.6 17.36 63.6 17.79 62.75 17.79 62.75 18.44 63.66 18.44 63.66 18.88"/><path id="_Compound_Path_8" data-name="&lt;Compound Path&gt;" class="cls-2" d="M66,17.62q0-.81-.71-.81H65v1.63h.23Q66,18.44,66,17.62Zm.55,0a1.23,1.23,0,0,1-.35.95,1.44,1.44,0,0,1-1,.33h-.71V16.37h.79a1.32,1.32,0,0,1,1,.32A1.19,1.19,0,0,1,66.53,17.6Z"/><rect id="_Path_12" data-name="&lt;Path&gt;" class="cls-2" x="67.31" y="16.37" width="0.53" height="2.51"/><path id="_Path_13" data-name="&lt;Path&gt;" class="cls-2" d="M69.8,16.78a.54.54,0,0,0-.46.23,1,1,0,0,0-.16.63q0,.84.63.84a2,2,0,0,0,.64-.13v.45a1.78,1.78,0,0,1-.69.13,1.05,1.05,0,0,1-.84-.33,1.4,1.4,0,0,1-.29-1,1.55,1.55,0,0,1,.14-.68,1,1,0,0,1,.41-.45,1.21,1.21,0,0,1,.62-.16,1.69,1.69,0,0,1,.73.18l-.17.43-.28-.12A.84.84,0,0,0,69.8,16.78Z"/><path id="_Compound_Path_9" data-name="&lt;Compound Path&gt;" class="cls-2" d="M72.46,17.84l-.28-.92,0-.17q-.06.22-.32,1.08Zm.31,1-.18-.6h-.91l-.18.6h-.57l.88-2.52h.65l.89,2.52Z"/><polygon id="_Path_14" data-name="&lt;Path&gt;" class="cls-2" points="74.89 18.88 74.36 18.88 74.36 16.82 73.67 16.82 73.67 16.37 75.57 16.37 75.57 16.82 74.89 16.82 74.89 18.88"/><polygon id="_Path_15" data-name="&lt;Path&gt;" class="cls-2" points="77.66 18.88 76.22 18.88 76.22 16.37 77.66 16.37 77.66 16.81 76.75 16.81 76.75 17.36 77.59 17.36 77.59 17.79 76.75 17.79 76.75 18.44 77.66 18.44 77.66 18.88"/><path id="_Compound_Path_10" data-name="&lt;Compound Path&gt;" class="cls-2" d="M80,17.62q0-.81-.71-.81H79v1.63h.23Q80,18.44,80,17.62Zm.55,0a1.23,1.23,0,0,1-.35.95,1.44,1.44,0,0,1-1,.33h-.71V16.37h.79a1.32,1.32,0,0,1,1,.32A1.19,1.19,0,0,1,80.52,17.6Z"/></g></svg>